#tb 0: 1/35
0,          0,          0,        1,   192000, 0x508ff8ac
0,          1,          1,        1,   192000, 0xef0d4274
0,          2,          2,        1,   192000, 0x0d50e0dd
0,          3,          3,        1,   192000, 0xf638f782
0,          4,          4,        1,   192000, 0x40e4314b
0,          5,          5,        1,   192000, 0x0ce5318f
0,          6,          6,        1,   192000, 0x14848fa9
0,          7,          7,        1,   192000, 0x676f83e1
0,          8,          8,        1,   192000, 0x5b98bea9
0,          9,          9,        1,   192000, 0xf5cc709d
0,         10,         10,        1,   192000, 0x719a0373
0,         11,         11,        1,   192000, 0xba5a3e74
0,         12,         12,        1,   192000, 0x34e10051
0,         13,         13,        1,   192000, 0xb66dd42d
0,         14,         14,        1,   192000, 0xfb58c833
0,         15,         15,        1,   192000, 0xa28029a4
0,         16,         16,        1,   192000, 0x28fa09b3
0,         17,         17,        1,   192000, 0x676f0b08
0,         18,         18,        1,   192000, 0x7af97965
0,         19,         19,        1,   192000, 0x436f0f03
0,         20,         20,        1,   192000, 0xbaca5814
0,         21,         21,        1,   192000, 0xca97eb51
0,         22,         22,        1,   192000, 0x1fc89137
0,         23,         23,        1,   192000, 0x8af63a74
0,         24,         24,        1,   192000, 0xca015077
0,         25,         25,        1,   192000, 0x761599ad
0,         26,         26,        1,   192000, 0x1ca1570c
0,         27,         27,        1,   192000, 0x1209a3ac
0,         28,         28,        1,   192000, 0xf7d92d01
0,         29,         29,        1,   192000, 0x970d6fea
0,         30,         30,        1,   192000, 0x508ff8ac
0,         31,         31,        1,   192000, 0xef0d4274
0,         32,         32,        1,   192000, 0x0d50e0dd
0,         33,         33,        1,   192000, 0xf638f782
0,         34,         34,        1,   192000, 0x40e4314b
0,         35,         35,        1,   192000, 0x0ce5318f
0,         36,         36,        1,   192000, 0x14848fa9
0,         37,         37,        1,   192000, 0x676f83e1
0,         38,         38,        1,   192000, 0x5b98bea9
0,         39,         39,        1,   192000, 0xf5cc709d
0,         40,         40,        1,   192000, 0x719a0373
0,         41,         41,        1,   192000, 0xba5a3e74
0,         42,         42,        1,   192000, 0x34e10051
0,         43,         43,        1,   192000, 0xb66dd42d
0,         44,         44,        1,   192000, 0xfb58c833
0,         45,         45,        1,   192000, 0xa28029a4
0,         46,         46,        1,   192000, 0x28fa09b3
0,         47,         47,        1,   192000, 0x676f0b08
0,         48,         48,        1,   192000, 0x7af97965
0,         49,         49,        1,   192000, 0x436f0f03
0,         50,         50,        1,   192000, 0xbaca5814
0,         51,         51,        1,   192000, 0xca97eb51
0,         52,         52,        1,   192000, 0x1fc89137
0,         53,         53,        1,   192000, 0x8af63a74
0,         54,         54,        1,   192000, 0xca015077
0,         55,         55,        1,   192000, 0x761599ad
0,         56,         56,        1,   192000, 0x1ca1570c
0,         57,         57,        1,   192000, 0x1209a3ac
0,         58,         58,        1,   192000, 0xf7d92d01
0,         59,         59,        1,   192000, 0x970d6fea
0,         60,         60,        1,   192000, 0x508ff8ac
0,         61,         61,        1,   192000, 0xef0d4274
0,         62,         62,        1,   192000, 0x0d50e0dd
0,         63,         63,        1,   192000, 0xf638f782
0,         64,         64,        1,   192000, 0x40e4314b
0,         65,         65,        1,   192000, 0x0ce5318f
0,         66,         66,        1,   192000, 0x14848fa9
0,         67,         67,        1,   192000, 0x676f83e1
0,         68,         68,        1,   192000, 0x5b98bea9
0,         69,         69,        1,   192000, 0xf5cc709d
0,         70,         70,        1,   192000, 0x719a0373
0,         71,         71,        1,   192000, 0xba5a3e74
0,         72,         72,        1,   192000, 0x34e10051
0,         73,         73,        1,   192000, 0xb66dd42d
0,         74,         74,        1,   192000, 0xfb58c833
0,         75,         75,        1,   192000, 0xa28029a4
0,         76,         76,        1,   192000, 0x28fa09b3
0,         77,         77,        1,   192000, 0x676f0b08
0,         78,         78,        1,   192000, 0x7af97965
0,         79,         79,        1,   192000, 0x436f0f03
0,         80,         80,        1,   192000, 0xbaca5814
0,         81,         81,        1,   192000, 0xca97eb51
0,         82,         82,        1,   192000, 0x1fc89137
0,         83,         83,        1,   192000, 0x8af63a74
0,         84,         84,        1,   192000, 0xca015077
0,         85,         85,        1,   192000, 0x761599ad
0,         86,         86,        1,   192000, 0x1ca1570c
0,         87,         87,        1,   192000, 0x1209a3ac
0,         88,         88,        1,   192000, 0xf7d92d01
0,         89,         89,        1,   192000, 0x970d6fea
0,         90,         90,        1,   192000, 0x1ff28298
0,         91,         91,        1,   192000, 0x1ff28298
0,         92,         92,        1,   192000, 0x407d09ca
0,         93,         93,        1,   192000, 0x407d09ca
0,         94,         94,        1,   192000, 0xc743a475
0,         95,         95,        1,   192000, 0xc743a475
0,         96,         96,        1,   192000, 0x46bf9f7d
0,         97,         97,        1,   192000, 0x46bf9f7d
0,         98,         98,        1,   192000, 0x57ecb2c1
0,         99,         99,        1,   192000, 0x57ecb2c1
0,        100,        100,        1,   192000, 0x680fd3bf
0,        101,        101,        1,   192000, 0x680fd3bf
0,        102,        102,        1,   192000, 0x8772ca19
0,        103,        103,        1,   192000, 0x8772ca19
0,        104,        104,        1,   192000, 0x3cc29bbf
0,        105,        105,        1,   192000, 0x3cc29bbf
0,        106,        106,        1,   192000, 0xe745fb3c
0,        107,        107,        1,   192000, 0xe745fb3c
0,        108,        108,        1,   192000, 0xc5279397
0,        109,        109,        1,   192000, 0xcc902b35
0,        110,        110,        1,   192000, 0x50a7cf32
0,        111,        111,        1,   192000, 0x23fd6f51
0,        112,        112,        1,   192000, 0x14fe9c4d
0,        113,        113,        1,   192000, 0x703249f9
0,        114,        114,        1,   192000, 0x47b73bce
0,        115,        115,        1,   192000, 0x13bce1c9
